<svg width="33" height="32" viewBox="0 0 33 32" xmlns="http://www.w3.org/2000/svg">
<path d="M27.1267 19.8133L26.3667 14.2666C25.74 9.63994 22.1667 6.05328 17.82 5.43994V4.01335C17.82 3.28001 17.22 2.68001 16.4867 2.68001C15.7534 2.68001 15.1534 3.28001 15.1534 4.01335V5.43994C10.8067 6.06661 7.26001 9.63994 6.62001 14.2666L5.86002 19.8133C5.66002 21.2533 6.08668 22.6933 7.03334 23.76C7.92668 24.7733 9.19336 25.3599 10.5267 25.3599H11.9267C12.22 27.5866 14.1134 29.32 16.42 29.32C18.7267 29.32 20.62 27.5866 20.9133 25.3599H22.42C23.7534 25.3599 25.02 24.7733 25.9133 23.76C26.86 22.68 27.2867 21.24 27.0867 19.8133H27.1267ZM16.4467 26.6667C15.6067 26.6667 14.9133 26.12 14.66 25.3733H18.2334C17.98 26.12 17.2867 26.6667 16.4467 26.6667ZM23.94 22.0133C23.5534 22.4533 23.02 22.7066 22.4467 22.7066H10.54C9.96668 22.7066 9.44669 22.4667 9.04669 22.0133C8.62002 21.52 8.42001 20.84 8.51334 20.1733L9.27335 14.6266C9.78002 10.8533 12.8867 8 16.5 8C20.1133 8 23.2067 10.8533 23.7267 14.6266L24.4867 20.1733C24.58 20.84 24.38 21.52 23.9533 22.0133H23.94Z"/>
</svg>
