<svg width="32" height="32" viewBox="0 0 32 32" fill="none" xmlns="http://www.w3.org/2000/svg">
<path d="M18.6667 20C17.9333 20 17.3333 20.6 17.3333 21.3333V22.6667C17.3333 24.1067 16.4133 25.3333 15.3333 25.3333H8.66667C7.58667 25.3333 6.66667 24.1067 6.66667 22.6667V9.33333C6.66667 7.89333 7.58667 6.66667 8.66667 6.66667H15.3333C16.4133 6.66667 17.3333 7.89333 17.3333 9.33333V10.6667C17.3333 11.4 17.9333 12 18.6667 12C19.4 12 20 11.4 20 10.6667V9.33333C20 6.38667 17.9067 4 15.3333 4H8.66667C6.09333 4 4 6.38667 4 9.33333V22.6667C4 25.6133 6.09333 28 8.66667 28H15.3333C17.9067 28 20 25.6133 20 22.6667V21.3333C20 20.6 19.4 20 18.6667 20Z" fill="#E0371F"/>
<path d="M27.9999 16C27.9999 15.8133 27.9599 15.6266 27.8799 15.4666C27.7999 15.2533 27.6932 15.0667 27.5332 14.9067L23.5199 10.9067C22.9999 10.3867 22.1599 10.3867 21.6399 10.9067C21.1199 11.4267 21.1199 12.2666 21.6399 12.7866L23.5199 14.6533H10.6666C9.93325 14.6533 9.33325 15.2533 9.33325 15.9867C9.33325 16.72 9.93325 17.32 10.6666 17.32H23.5199L21.6532 19.1866C21.1332 19.7066 21.1332 20.5467 21.6532 21.0667C21.9199 21.3333 22.2533 21.4533 22.5999 21.4533C22.9466 21.4533 23.2799 21.32 23.5466 21.0667L27.5466 17.08C27.7066 16.92 27.8266 16.7199 27.8933 16.5199C27.9599 16.3599 28.0133 16.1733 28.0133 15.9867L27.9999 16Z" fill="#E0371F"/>
</svg>
